<svg width="45" height="45" viewBox="0 0 45 45" fill="none" xmlns="http://www.w3.org/2000/svg">
<path d="M24.2626 22.5001L33.3751 13.3876C33.5799 13.1485 33.6869 12.8409 33.6747 12.5263C33.6626 12.2117 33.5322 11.9132 33.3095 11.6906C33.0869 11.468 32.7885 11.3376 32.4739 11.3254C32.1593 11.3133 31.8517 11.4203 31.6126 11.6251L22.5001 20.7376L13.3876 11.6126C13.1485 11.4078 12.8409 11.3008 12.5263 11.3129C12.2117 11.3251 11.9133 11.4555 11.6906 11.6781C11.468 11.9007 11.3376 12.1992 11.3254 12.5138C11.3133 12.8284 11.4203 13.136 11.6251 13.3751L20.7376 22.5001L11.6126 31.6126C11.4817 31.7246 11.3755 31.8625 11.3004 32.0176C11.2254 32.1727 11.1832 32.3416 11.1766 32.5138C11.1699 32.6859 11.1989 32.8576 11.2618 33.018C11.3246 33.1784 11.42 33.3241 11.5418 33.4459C11.6636 33.5677 11.8093 33.663 11.9697 33.7259C12.1301 33.7887 12.3018 33.8177 12.4739 33.8111C12.6461 33.8044 12.815 33.7623 12.9701 33.6872C13.1251 33.6122 13.263 33.5059 13.3751 33.3751L22.5001 24.2626L31.6126 33.3751C31.8517 33.5799 32.1593 33.6869 32.4739 33.6747C32.7885 33.6626 33.0869 33.5322 33.3095 33.3095C33.5322 33.0869 33.6626 32.7885 33.6747 32.4739C33.6869 32.1593 33.5799 31.8517 33.3751 31.6126L24.2626 22.5001Z" fill="#487996"/>
</svg>
