<svg width="23" height="23" viewBox="0 0 23 23" fill="none" xmlns="http://www.w3.org/2000/svg">
<path d="M13.2626 11.5001L22.3751 2.38758C22.5799 2.14846 22.6869 1.84086 22.6747 1.52627C22.6626 1.21167 22.5322 0.913247 22.3095 0.690629C22.0869 0.468011 21.7885 0.337594 21.4739 0.325443C21.1593 0.313292 20.8517 0.4203 20.6126 0.625083L11.5001 9.73758L2.38759 0.612582C2.14846 0.407799 1.84087 0.300793 1.52627 0.312944C1.21168 0.325095 0.913254 0.45551 0.690635 0.678128C0.468017 0.900747 0.337601 1.19917 0.32545 1.51377C0.313298 1.82836 0.420306 2.13596 0.625089 2.37508L9.73759 11.5001L0.612589 20.6126C0.481737 20.7246 0.375462 20.8625 0.300432 21.0176C0.225403 21.1727 0.18324 21.3416 0.176591 21.5138C0.169941 21.6859 0.198949 21.8576 0.261792 22.018C0.324635 22.1784 0.419958 22.3241 0.541776 22.4459C0.663595 22.5677 0.809279 22.663 0.969685 22.7259C1.13009 22.7887 1.30176 22.8177 1.47391 22.8111C1.64605 22.8044 1.81497 22.7623 1.97005 22.6872C2.12513 22.6122 2.26303 22.5059 2.37509 22.3751L11.5001 13.2626L20.6126 22.3751C20.8517 22.5799 21.1593 22.6869 21.4739 22.6747C21.7885 22.6626 22.0869 22.5322 22.3095 22.3095C22.5322 22.0869 22.6626 21.7885 22.6747 21.4739C22.6869 21.1593 22.5799 20.8517 22.3751 20.6126L13.2626 11.5001Z" fill="#487996"/>
</svg>
